# xmcd
#
# Track frame offsets: 
#        150
#        10566
#        39714
#        63418
#        91487
#        116806
#        145251
#        181303
#        203457
#        224585
#        246780
#        271979
#
# Disc length: 3697 seconds
#
# Revision: 1
# Processed by: cddbd v1.5.2PL0 Copyright (c) Steve Scherf et al.
# Submitted via: ExactAudioCopy v1.0b3
#
DISCID=ab0e6f0c
DTITLE=Jazz at Lincoln Center Orchestra with Wynton Marsalis - Big Ban
DTITLE=d Holidays
DYEAR=2015
DGENRE=Christmas
TTITLE0=Jingle Bells
TTITLE1=Have Yourself a Merry Little Christmas
TTITLE2=White Christmas
TTITLE3='Zat You, Santa Claus?
TTITLE4=A Cradle in Bethlehem
TTITLE5=We Three Kings
TTITLE6=What Child Is This?
TTITLE7=Merry Christmas Baby
TTITLE8=It's Easy to Blame the Weather
TTITLE9=I'll Be Home for Christmas
TTITLE10=Good Morning Blues
TTITLE11=Band Introductions
EXTD=YEAR: 2015
EXTT0=
EXTT1=
EXTT2=
EXTT3=
EXTT4=
EXTT5=
EXTT6=
EXTT7=
EXTT8=
EXTT9=
EXTT10=
EXTT11=
PLAYORDER=
